<?xml version="1.0" encoding="utf-8"?>
<!-- Generator: Adobe Illustrator 21.1.0, SVG Export Plug-In . SVG Version: 6.00 Build 0)  -->
<svg version="1.1" id="图层_1" xmlns="http://www.w3.org/2000/svg" xmlns:xlink="http://www.w3.org/1999/xlink" x="0px" y="0px"
	 viewBox="0 0 64 64" style="enable-background:new 0 0 64 64;" xml:space="preserve">
<style type="text/css">
	.st0{fill-rule:evenodd;clip-rule:evenodd;fill:#73B724;}
	.st1{fill-rule:evenodd;clip-rule:evenodd;fill:#FFFFFF;}
</style>
<path class="st0" d="M32.4,1.1C45,1.1,55.2,11.4,55.2,24S35.3,52.9,32.4,62.1C29.3,52.9,9.5,36.6,9.5,24S19.8,1.1,32.4,1.1z"/>
<g>
	<path class="st1" d="M24.4,30.9L29,13.8c0.1-0.3-0.1-0.6-0.4-0.7c-0.3-0.1-0.6,0.1-0.7,0.4l-4.6,17.1c-1.1,0.1-2,1-2,2.1
		c0,1.2,0.9,2.1,2.1,2.1c1.2,0,2.1-0.9,2.1-2.1C25.6,31.9,25.1,31.2,24.4,30.9z"/>
	<path class="st1" d="M39.5,20.3c-1.3-0.5-4.3-4.2-5.5-5.1s-3-1.7-4.4-1.5l-2.9,11.5c0,0,1.9-0.6,3.3,0c1.4,0.6,2.8,2.6,4.6,2.9
		c1.8,0.2,3.7,0,4.2-0.2c0,0,4.6-7.5,4.6-7.5S40.7,20.8,39.5,20.3z"/>
</g>
</svg>
