<?xml version="1.0" encoding="utf-8"?>
<!-- Generator: Adobe Illustrator 21.1.0, SVG Export Plug-In . SVG Version: 6.00 Build 0)  -->
<svg version="1.1" id="图层_1" xmlns="http://www.w3.org/2000/svg" xmlns:xlink="http://www.w3.org/1999/xlink" x="0px" y="0px"
	 viewBox="0 0 64 64" style="enable-background:new 0 0 64 64;" xml:space="preserve">
<style type="text/css">
	.st0{fill-rule:evenodd;clip-rule:evenodd;fill:none;stroke:#73B724;stroke-miterlimit:10;}
	.st1{fill-rule:evenodd;clip-rule:evenodd;fill:#73B724;}
	.st2{fill-rule:evenodd;clip-rule:evenodd;fill:#FFFFFF;}
</style>
<path class="st0" d="M32.4,1.1C45,1.1,55.2,11.4,55.2,24S35.3,52.9,32.4,62.1C29.3,52.9,9.5,36.6,9.5,24S19.8,1.1,32.4,1.1z"/>
<path class="st1" d="M32.4,5.7c10.1,0,18.3,8.2,18.3,18.3s-8.2,18.3-18.3,18.3S14.1,34.1,14.1,24S22.3,5.7,32.4,5.7z"/>
<path class="st2" d="M23.2,30.7L20,33.9h24.7l-3.2-3.2h-0.2V22h2.2l-11.1-7.9L21.2,22h2.2v8.6H23.2z M31,30.7V22h2.6v8.6H31z
	 M38.8,30.7h-2.6V22h2.6V30.7z M32.3,17.3c0.7,0,1.2,0.6,1.2,1.2s-0.6,1.2-1.2,1.2s-1.2-0.6-1.2-1.2S31.7,17.3,32.3,17.3z M25.9,22
	h2.6v8.6h-2.6V22z"/>
</svg>
