<?xml version="1.0" encoding="utf-8"?>
<!-- Generator: Adobe Illustrator 21.1.0, SVG Export Plug-In . SVG Version: 6.00 Build 0)  -->
<svg version="1.1" id="图层_1" xmlns="http://www.w3.org/2000/svg" xmlns:xlink="http://www.w3.org/1999/xlink" x="0px" y="0px"
	 viewBox="0 0 64 64" style="enable-background:new 0 0 64 64;" xml:space="preserve">
<style type="text/css">
	.st0{fill-rule:evenodd;clip-rule:evenodd;fill:none;stroke:#73B724;stroke-miterlimit:10;}
	.st1{fill-rule:evenodd;clip-rule:evenodd;fill:#73B724;}
	.st2{fill-rule:evenodd;clip-rule:evenodd;fill:#FFFFFF;}
</style>
<path class="st0" d="M32.4,1.1C45,1.1,55.2,11.4,55.2,24S35.3,52.9,32.4,62.1C29.3,52.9,9.5,36.6,9.5,24S19.8,1.1,32.4,1.1z"/>
<path class="st1" d="M32.4,5.7c10.1,0,18.3,8.2,18.3,18.3s-8.2,18.3-18.3,18.3S14.1,34.1,14.1,24S22.3,5.7,32.4,5.7z"/>
<path class="st2" d="M37.4,22.9v9.3h-1.1V18.9H38l-5.6-4.2l-5.6,4.2h1.7v13.3h-1.3v-9.3h-4.2v9.3v1v0.2h5.5h7.9h5.3v-0.2v-1v-9.3
	H37.4z M34.4,27.1v4h-4v-4H34.4z M30.5,22c0-1.1,0.9-1.9,1.9-1.9s1.9,0.9,1.9,1.9c0,1.1-0.9,1.9-1.9,1.9S30.5,23,30.5,22z
	 M23.5,24.3h3v1.2h-3V24.3z M23.5,26.3h3v1.2h-3V26.3z M23.5,28.3h3v1.2h-3V28.3z M38,24.3h3v1.2h-3V24.3z M38,26.3h3v1.2h-3V26.3z
	 M38,28.3h3v1.2h-3V28.3z"/>
</svg>
